<svg width="955" height="905" viewBox="0 0 955 905" fill="none" xmlns="http://www.w3.org/2000/svg">
<rect x="371" y="798.066" width="150" height="150" rx="25" transform="rotate(-45 371 798.066)" fill="white"/>
<rect x="498" y="683.066" width="150" height="150" rx="25" transform="rotate(-45 498 683.066)" fill="white" fill-opacity="0.5"/>
<rect x="622" y="563.066" width="150" height="150" rx="25" transform="rotate(-45 622 563.066)" fill="white"/>
<rect x="742" y="443.066" width="150" height="150" rx="25" transform="rotate(-45 742 443.066)" fill="white" fill-opacity="0.5"/>
<rect x="622" y="327.066" width="150" height="150" rx="25" transform="rotate(-45 622 327.066)" fill="white"/>
<rect x="507" y="212.066" width="150" height="150" rx="25" transform="rotate(-45 507 212.066)" fill="white" fill-opacity="0.5"/>
<rect x="411" y="442.71" width="100" height="100" rx="25" transform="rotate(-45 411 442.71)" fill="white" fill-opacity="0.5"/>
<rect x="406" y="598.71" width="100" height="100" rx="25" transform="rotate(-45 406 598.71)" fill="white" fill-opacity="0.5"/>
<rect x="316" y="527.71" width="100" height="100" rx="25" transform="rotate(-45 316 527.71)" fill="white"/>
<rect x="238" y="442.71" width="100" height="100" rx="25" transform="rotate(-45 238 442.71)" fill="white" fill-opacity="0.5"/>
<rect x="324" y="361.71" width="100" height="100" rx="25" transform="rotate(-45 324 361.71)" fill="white"/>
<rect x="414" y="286.71" width="100" height="100" rx="25" transform="rotate(-45 414 286.71)" fill="white" fill-opacity="0.5"/>
<rect x="498" y="361.71" width="100" height="100" rx="25" transform="rotate(-45 498 361.71)" fill="white"/>
<rect x="578" y="442.71" width="100" height="100" rx="25" transform="rotate(-45 578 442.71)" fill="white" fill-opacity="0.5"/>
<rect x="498" y="524.71" width="100" height="100" rx="25" transform="rotate(-45 498 524.71)" fill="white"/>
<rect x="245" y="683.066" width="150" height="150" rx="25" transform="rotate(-45 245 683.066)" fill="white" fill-opacity="0.5"/>
<rect x="122" y="563.066" width="150" height="150" rx="25" transform="rotate(-45 122 563.066)" fill="white"/>
<rect y="443.066" width="150" height="150" rx="25" transform="rotate(-45 0 443.066)" fill="white" fill-opacity="0.5"/>
<rect x="129" y="327.066" width="150" height="150" rx="25" transform="rotate(-45 129 327.066)" fill="white"/>
<rect x="245" y="221.066" width="150" height="150" rx="25" transform="rotate(-45 245 221.066)" fill="white" fill-opacity="0.5"/>
<rect x="379" y="106.066" width="150" height="150" rx="25" transform="rotate(-45 379 106.066)" fill="white"/>
</svg>
